<?xml version="1.0" encoding="UTF-8"?>
<svg id="Capa_2" data-name="Capa 2" xmlns="http://www.w3.org/2000/svg" viewBox="0 0 819.35 196.3">
  <defs>
    <style>
      .cls-1 {
        fill: #23594c;
      }

      .cls-2 {
        font-family: RaspoutineDemiBold, 'Raspoutine DemiBold';
        font-size: 132.52px;
      }

      .cls-3 {
        fill: #fff;
      }

      .cls-4 {
        fill: #7eaa8b;
      }
    </style>
  </defs>
  <g id="Capa_1-2" data-name="Capa 1">
    <g>
      <g>
        <path class="cls-4" d="M98.29,20.26l82.02,92.91v36.35c0,3.64-2.96,6.6-6.6,6.6h-59.28v-30.15c0-4.61-3.73-8.34-8.34-8.34h-15.59c-4.61,0-8.34,3.74-8.34,8.34v30.15H22.87c-3.64,0-6.6-2.96-6.6-6.6v-36.35L98.29,20.26Z"/>
        <path class="cls-1" d="M194.56,104.84l-9.79-11.09-2.23-2.52-2.23-2.52-8.76-9.92v-33.83h3.99v-5.48h-28.76v5.48h3.99v10.29l-31.36-35.53-1.97-2.23-1.97-2.23-11.06-12.52C102.81.91,100.55-.02,98.29,0c-2.26-.02-4.52.91-6.13,2.74l-11.06,12.52-1.97,2.23-1.97,2.23L16.27,88.7l-2.23,2.52-2.23,2.52-9.79,11.09c-1.36,1.54-2.03,3.45-2.03,5.36,0,2.24.92,4.47,2.74,6.07,2.58,2.28,6.2,2.61,9.08,1.12v32.13c0,6.09,4.96,11.05,11.05,11.05h150.84c6.1,0,11.05-4.96,11.05-11.05v-32.13c2.88,1.49,6.5,1.15,9.08-1.12,1.81-1.6,2.74-3.83,2.74-6.07,0-1.9-.67-3.82-2.03-5.36ZM98.29,20.26l82.02,92.91v36.35c0,3.64-2.96,6.6-6.6,6.6h-59.28v-30.15c0-4.61-3.73-8.34-8.34-8.34h-15.59c-4.61,0-8.34,3.74-8.34,8.34v30.15H22.87c-3.64,0-6.6-2.96-6.6-6.6v-36.35L98.29,20.26Z"/>
        <rect class="cls-3" x="33.83" y="120.16" width="6.62" height="9.18"/>
        <rect class="cls-3" x="60.7" y="120.16" width="6.62" height="9.18"/>
        <rect class="cls-3" x="44.9" y="120.16" width="11.33" height="9.18"/>
        <rect class="cls-3" x="33.83" y="106.52" width="6.62" height="9.18"/>
        <rect class="cls-3" x="60.7" y="106.52" width="6.62" height="9.18"/>
        <rect class="cls-3" x="44.9" y="106.52" width="11.33" height="9.18"/>
        <rect class="cls-3" x="129.26" y="120.16" width="6.62" height="9.18"/>
        <rect class="cls-3" x="156.13" y="120.16" width="6.62" height="9.18"/>
        <rect class="cls-3" x="140.34" y="120.16" width="11.33" height="9.18"/>
        <rect class="cls-3" x="129.26" y="106.52" width="6.62" height="9.18"/>
        <rect class="cls-3" x="156.13" y="106.52" width="6.62" height="9.18"/>
        <rect class="cls-3" x="140.34" y="106.52" width="11.33" height="9.18"/>
      </g>
      <text class="cls-2" transform="translate(208.51 161.32)"><tspan class="cls-1" x="0" y="0">Iber</tspan><tspan class="cls-4" x="213.22" y="0">Césped</tspan></text>
    </g>
  </g>
</svg>